<svg width="80" height="33" viewBox="0 0 80 33" fill="none" xmlns="http://www.w3.org/2000/svg">
<path d="M34.8317 7.9585H47.8769V13.4138H40.287V18.8691H47.8769V24.3243H34.8317V7.9585Z" fill="#838383"/>
<path d="M50.4862 7.9585H63.5314V12.7022H55.9415V13.651H63.5314V24.5615H50.4862V19.5806H58.0761V18.6319H50.4862V7.9585Z" fill="#838383"/>
<path d="M66.1406 7.9585H79.1858V12.7022H71.5959V13.651H79.1858V24.5615H66.1406V19.5806H73.7306V18.6319H66.1406V7.9585Z" fill="#838383"/>
<path d="M26.4148 29.6606L14.5134 32.96L2.64486 29.6652L0 0H29.0625L26.4148 29.6606Z" fill="#838383"/>
<path d="M14.5313 30.4381L24.1482 27.772L26.4108 2.42566H14.5313V30.4381Z" fill="#838383"/>
<path d="M14.5311 13.4281H6.06314L6.38923 17.0664H14.5311V13.4281Z" fill="#838383"/>
<path d="M14.5186 6.06384H5.40802L5.73876 9.7022H14.5312V6.06384H14.5186Z" fill="#838383"/>
<path d="M14.5154 22.8814L10.4634 21.7872L10.2044 18.8855H8.23543H6.55209L7.06182 24.5982L14.5146 26.6671L14.5314 26.6625V22.8771L14.5154 22.8814Z" fill="#838383"/>
<path d="M19.6455 9.7022L19.3145 13.4279H14.5188V17.0662H18.9989L18.5766 21.7848L14.5188 22.88V26.6652L21.9775 24.5981L22.0322 23.9834L22.8872 14.4049L22.976 13.4279L23.6328 6.06384H14.5188V9.7022H19.6455Z" fill="white"/>
</svg>
