<svg width="130" height="33" viewBox="0 0 130 33" fill="none" xmlns="http://www.w3.org/2000/svg">
<path d="M35.6026 6.51172L36.5882 7.22533C38.3023 8.60796 39.288 10.169 39.5022 11.953C41.3449 11.5962 43.7018 11.8638 44.7303 12.5774L45.6731 13.1572L45.5017 13.514C45.2017 14.1831 45.116 14.3615 45.0731 14.4507C43.4019 17.7957 40.1022 17.8403 38.5595 17.7957C34.6598 27.5633 26.3464 32.96 15.1189 32.96C9.93366 32.96 5.99118 31.3098 3.33429 28.0539C-0.179654 23.7722 -0.179654 18.1971 0.120317 16.4131L0.206023 16.0563H31.1887C32.8172 16.0563 34.0599 15.6103 34.6598 15.2535C34.017 14.2723 33.8028 13.1572 33.7599 12.5328C33.6314 10.7488 34.0599 8.87556 34.917 7.53754L35.6026 6.51172ZM62.4479 8.58269C62.7936 8.58269 63.0863 8.69858 63.3259 8.93036C63.5656 9.16214 63.6854 9.4548 63.6854 9.80836V20.8394C63.6854 22.6779 63.0411 24.2336 61.7526 25.5064C60.4483 26.7949 58.8927 27.4392 57.0856 27.4392C55.2628 27.4392 53.7072 26.7949 52.4186 25.5064C51.1301 24.2179 50.4858 22.6622 50.4858 20.8394C50.4858 19.0166 51.1301 17.461 52.4186 16.1724C53.7072 14.8839 55.2628 14.2396 57.0856 14.2396C58.6491 14.2396 60.028 14.7228 61.2222 15.6892V9.80836C61.2222 9.4548 61.3381 9.16214 61.5699 8.93036C61.8017 8.69858 62.0944 8.58269 62.4479 8.58269ZM71.6881 14.2396C73.4952 14.2396 75.0508 14.8839 76.3551 16.1724C76.9993 16.8167 77.4806 17.5277 77.7988 18.3056C78.117 19.0834 78.28 19.928 78.2879 20.8394C78.2879 22.6779 77.6436 24.2336 76.3551 25.5064C75.0508 26.7949 73.4952 27.4392 71.6881 27.4392C69.8653 27.4392 68.3096 26.7949 67.0211 25.5064C65.7326 24.2179 65.0883 22.6622 65.0883 20.8394C65.0883 19.0166 65.7326 17.461 67.0211 16.1724C68.3096 14.8839 69.8653 14.2396 71.6881 14.2396ZM86.267 14.2396C87.9248 14.2396 89.3587 14.7739 90.5686 15.8424C90.8515 16.0939 90.9929 16.4042 90.9929 16.7735C90.9929 17.127 90.877 17.4217 90.6452 17.6574C90.4135 17.8931 90.1208 18.0109 89.7672 18.0109C89.4687 18.0109 89.2015 17.9167 88.9658 17.7281C88.5651 17.3902 88.1448 17.1349 87.7048 16.9621C87.2648 16.7892 86.7855 16.7028 86.267 16.7028C85.6934 16.7028 85.1552 16.8108 84.6524 17.0269C84.1496 17.2429 83.7096 17.5376 83.3324 17.9108C82.9553 18.284 82.6587 18.722 82.4427 19.2248C82.2266 19.7277 82.1186 20.2659 82.1186 20.8394C82.1186 21.413 82.2266 21.9512 82.4427 22.454C82.6587 22.9569 82.9553 23.3949 83.3324 23.7681C83.7096 24.1413 84.1496 24.4359 84.6524 24.652C85.1552 24.868 85.6934 24.9761 86.267 24.9761C86.7855 24.9761 87.2648 24.8916 87.7048 24.7227C88.1448 24.5538 88.5612 24.3004 88.954 23.9625C89.174 23.7975 89.4333 23.7111 89.7319 23.7033C90.0854 23.7033 90.3781 23.8191 90.6099 24.0509C90.8417 24.2827 90.9575 24.5754 90.9575 24.9289C90.9575 25.2746 90.8279 25.5771 90.5686 25.8364C89.3508 26.9049 87.9169 27.4392 86.267 27.4392C84.4442 27.4392 82.8885 26.7949 81.6 25.5064C80.3115 24.2179 79.6672 22.6622 79.6672 20.8394C79.6672 19.0166 80.3115 17.461 81.6 16.1724C82.8885 14.8839 84.4442 14.2396 86.267 14.2396ZM93.6215 8.58269C93.9594 8.58269 94.2481 8.70251 94.4877 8.94214C94.7274 9.18178 94.8472 9.47444 94.8472 9.82015V19.0127L101.895 14.4282C102.091 14.3025 102.311 14.2396 102.555 14.2396C102.728 14.2396 102.889 14.2711 103.038 14.3339C103.187 14.3968 103.317 14.4852 103.427 14.5991C103.537 14.713 103.625 14.8446 103.692 14.9939C103.759 15.1432 103.792 15.3003 103.792 15.4653C103.792 15.9053 103.635 16.2314 103.321 16.4435L98.3828 19.6491L103.45 25.3532C103.678 25.6046 103.792 25.8914 103.792 26.2135C103.792 26.3785 103.759 26.5357 103.692 26.6849C103.625 26.8342 103.537 26.9658 103.427 27.0797C103.317 27.1937 103.187 27.2821 103.038 27.3449C102.889 27.4078 102.728 27.4392 102.555 27.4392C102.225 27.4392 101.95 27.3331 101.73 27.121L96.285 21.0044L94.8472 21.9472V26.2017C94.8472 26.5396 94.7274 26.8303 94.4877 27.0739C94.2481 27.3174 93.9594 27.4392 93.6215 27.4392C93.2758 27.4392 92.9831 27.3174 92.7435 27.0739C92.5039 26.8303 92.384 26.5396 92.384 26.2017V9.82015C92.384 9.47444 92.5039 9.18178 92.7435 8.94214C92.9831 8.70251 93.2758 8.58269 93.6215 8.58269ZM111.724 14.2396C113.531 14.2396 115.087 14.8839 116.391 16.1724C117.035 16.8088 117.519 17.5179 117.841 18.2997C118.163 19.0814 118.324 19.928 118.324 20.8394C118.324 21.193 118.204 21.4856 117.965 21.7174C117.725 21.9492 117.432 22.0651 117.087 22.0651H107.753C107.886 22.4972 108.083 22.892 108.342 23.2495C108.601 23.607 108.906 23.9134 109.255 24.1688C109.605 24.4241 109.99 24.6225 110.41 24.7639C110.831 24.9054 111.269 24.9761 111.724 24.9761C112.243 24.9761 112.718 24.8975 113.15 24.7404C113.582 24.5832 113.983 24.3475 114.352 24.0332C114.588 23.8368 114.859 23.7347 115.166 23.7268C115.519 23.7268 115.812 23.8427 116.044 24.0745C116.275 24.3063 116.391 24.5989 116.391 24.9525C116.391 25.2982 116.273 25.5928 116.038 25.8364C114.82 26.9049 113.382 27.4392 111.724 27.4392C109.901 27.4392 108.346 26.7949 107.057 25.5064C105.769 24.2179 105.124 22.6622 105.124 20.8394C105.124 19.0166 105.769 17.461 107.057 16.1724C108.346 14.8839 109.901 14.2396 111.724 14.2396ZM126.28 14.2396C126.625 14.2396 126.996 14.2632 127.393 14.3104C127.79 14.3575 128.155 14.442 128.489 14.5637C128.823 14.6855 129.1 14.8525 129.32 15.0646C129.54 15.2768 129.65 15.5517 129.65 15.8896C129.65 16.0624 129.617 16.2235 129.55 16.3728C129.483 16.5221 129.395 16.6537 129.285 16.7676C129.175 16.8815 129.045 16.9699 128.896 17.0328C128.747 17.0956 128.586 17.127 128.413 17.127C128.263 17.127 128.091 17.0838 127.894 16.9974C127.399 16.801 126.861 16.7028 126.28 16.7028C125.706 16.7028 125.168 16.8108 124.665 17.0269C124.162 17.2429 123.724 17.5376 123.351 17.9108C122.978 18.284 122.683 18.722 122.467 19.2248C122.251 19.7277 122.143 20.2659 122.143 20.8394V26.2135C122.143 26.5514 122.023 26.8401 121.783 27.0797C121.544 27.3194 121.255 27.4392 120.917 27.4392C120.572 27.4392 120.279 27.3194 120.039 27.0797C119.8 26.8401 119.68 26.5514 119.68 26.2135V15.4653C119.68 15.1275 119.8 14.8387 120.039 14.5991C120.279 14.3595 120.572 14.2396 120.917 14.2396C121.255 14.2396 121.544 14.3595 121.783 14.5991C122.023 14.8387 122.143 15.1275 122.143 15.4653V15.701C122.732 15.2296 123.373 14.8682 124.064 14.6168C124.755 14.3654 125.494 14.2396 126.28 14.2396ZM57.0856 16.7028C56.5042 16.7028 55.9621 16.8128 55.4592 17.0328C54.9564 17.2528 54.5203 17.5494 54.1511 17.9226C53.7818 18.2958 53.4891 18.7338 53.2731 19.2366C53.057 19.7395 52.949 20.2737 52.949 20.8394C52.949 21.4051 53.057 21.9394 53.2731 22.4422C53.4891 22.9451 53.7818 23.3831 54.1511 23.7563C54.5203 24.1295 54.9564 24.4261 55.4592 24.6461C55.9621 24.8661 56.5042 24.9761 57.0856 24.9761C57.6592 24.9761 58.1973 24.8661 58.7002 24.6461C59.203 24.4261 59.641 24.1275 60.0143 23.7504C60.3875 23.3733 60.6821 22.9352 60.8982 22.4363C61.1142 21.9374 61.2222 21.4051 61.2222 20.8394C61.2222 20.2737 61.1142 19.7414 60.8982 19.2425C60.6821 18.7436 60.3875 18.3056 60.0143 17.9284C59.641 17.5513 59.203 17.2528 58.7002 17.0328C58.1973 16.8128 57.6592 16.7028 57.0856 16.7028ZM71.6881 16.7028C71.1067 16.7028 70.5645 16.8128 70.0617 17.0328C69.5589 17.2528 69.1228 17.5494 68.7535 17.9226C68.3843 18.2958 68.0916 18.7338 67.8755 19.2366C67.6595 19.7395 67.5514 20.2737 67.5514 20.8394C67.5514 21.4051 67.6595 21.9394 67.8755 22.4422C68.0916 22.9451 68.3843 23.3831 68.7535 23.7563C69.1228 24.1295 69.5589 24.4261 70.0617 24.6461C70.5645 24.8661 71.1067 24.9761 71.6881 24.9761C72.2616 24.9761 72.7998 24.8661 73.3027 24.6461C73.8055 24.4261 74.2435 24.1275 74.6167 23.7504C74.9899 23.3733 75.2846 22.9352 75.5006 22.4363C75.7167 21.9374 75.8247 21.4051 75.8247 20.8394C75.8247 20.2737 75.7167 19.7414 75.5006 19.2425C75.2846 18.7436 74.9899 18.3056 74.6167 17.9284C74.2435 17.5513 73.8055 17.2528 73.3027 17.0328C72.7998 16.8128 72.2616 16.7028 71.6881 16.7028ZM111.724 16.7028C111.276 16.7028 110.84 16.7735 110.416 16.9149C109.992 17.0563 109.603 17.2547 109.249 17.5101C108.896 17.7654 108.589 18.0718 108.33 18.4293C108.071 18.7868 107.878 19.1816 107.753 19.6137H115.696C115.562 19.1816 115.364 18.7868 115.101 18.4293C114.838 18.0718 114.531 17.7654 114.181 17.5101C113.832 17.2547 113.447 17.0563 113.027 16.9149C112.606 16.7735 112.172 16.7028 111.724 16.7028ZM8.26239 10.7042V15.1643H3.54856V10.7042H8.26239ZM13.8333 10.7042V15.1643H9.11945V10.7042H13.8333ZM19.4042 10.7042V15.1643H14.6903V10.7042H19.4042ZM24.9751 10.7042V15.1643H20.2612V10.7042H24.9751ZM30.546 10.7042V15.1643H25.8321V10.7042H30.546ZM24.9751 5.3521V9.81218H20.2612V5.3521H24.9751ZM19.4042 5.3521V9.81218H14.6903V5.3521H19.4042ZM13.8333 5.3521V9.81218H9.11945V5.3521H13.8333ZM24.9751 0V4.46008H20.2612V0H24.9751Z" fill="#838383"/>
</svg>
