<svg width="99" height="33" viewBox="0 0 99 33" fill="none" xmlns="http://www.w3.org/2000/svg">
<path d="M0 8.6488H5.23612V13.8206H10.0249V8.6488H15.261V24.3112H10.0249V19.0751H5.23612V24.3112H0V8.6488ZM22.1451 13.8436H17.5272V8.64972H31.9826V13.8436H27.3711V24.3131H22.135V13.8436H22.1451ZM34.2773 8.6488H39.7366L43.0951 14.1605L46.4499 8.6488H51.9019V24.3112H46.6878V16.5471L43.0868 22.1167H42.9968L39.4087 16.548V24.3122H34.2865L34.2773 8.6488ZM54.5144 8.6488H59.7506V19.144H67.1133V24.3213H54.5154L54.5144 8.6488Z" fill="#838383"/>
<path d="M69.6037 0H98.666L96.0185 29.6603L84.1179 32.96L72.2493 29.6649L69.6037 0Z" fill="#838383"/>
<path d="M93.7542 27.7726L96.0167 2.42615H84.1454V30.4385L93.7542 27.7726Z" fill="#838383"/>
<path d="M79.323 13.4285L78.9905 9.70254H84.1457V6.06482H75.0239L76.0049 17.0671H84.1457V13.4294L79.323 13.4285ZM76.1574 18.8869L76.6673 24.6007L84.12 26.6694L84.1366 26.6648V22.8801L84.1209 22.8847L80.079 21.7824L79.82 18.8795H77.8514L76.1574 18.8869Z" fill="#A6A6A6"/>
<path d="M92.4921 14.4037L92.5812 13.4263H84.1244V17.064H88.6045L88.1819 21.7829L84.1244 22.8779V26.6626L91.5836 24.5958L91.6387 23.9803L92.4921 14.4037ZM84.1327 9.70221H92.9211L93.2472 6.0553H84.1327V9.68384V9.70221Z" fill="white"/>
</svg>
