<svg width="149" height="40" viewBox="0 0 149 40" fill="none" xmlns="http://www.w3.org/2000/svg">
<g clip-path="url(#clip0_104_6372)">
<path d="M0 37.158V0H9.33738V3.1343H4.40132V34.0237H9.33738V37.158H0ZM12.4475 29.6934V24.6208H17.5481V29.6934H12.4475ZM29.984 37.158H20.6877V34.0237H25.6237V3.1343H20.6877V0H29.984V37.158Z" fill="#5D45FD"/>
<path d="M36.9194 29.6935V7.71212H41.3208V10.9701C42.7605 8.33078 45.0228 7.13475 47.5731 7.13475C48.4369 7.13475 49.2596 7.34096 49.6709 7.71212V11.5887C49.0128 11.3825 48.2312 11.3001 47.3263 11.3001C43.1306 11.3001 41.3208 13.857 41.3208 17.6924V29.6935H36.9194ZM71.7205 22.5176C70.5276 27.6314 66.7434 30.2296 61.6017 30.2296C55.1436 30.2296 51.1948 25.8993 51.1948 18.7234C51.1948 11.2589 55.1436 7.13475 61.396 7.13475C67.7306 7.13475 71.556 11.4238 71.556 18.476V19.5482H55.6784C55.9252 24.0435 58.023 26.5592 61.6017 26.5592C64.3987 26.5592 66.3732 25.2395 67.1136 22.5176H71.7205ZM61.396 10.8051C58.2286 10.8051 56.3365 12.826 55.8018 16.5376H66.9902C66.4554 12.826 64.5221 10.8051 61.396 10.8051ZM75.9644 29.6935V7.71212H80.3657V10.6402C81.8466 8.28947 84.15 7.13475 86.9883 7.13475C91.5544 7.13475 94.3927 9.81543 94.3927 15.0118V29.6935H90.0318V15.919C90.0318 12.7435 88.6338 10.8051 85.631 10.8051C82.34 10.8051 80.3657 13.7333 80.3657 16.7851V29.6935H75.9644ZM100.424 39.3026C99.4783 39.3026 98.4906 39.0552 97.9972 38.8902V35.5084H99.19C101.699 35.5084 102.646 35.0136 104.538 30.4358L105.196 28.9099L96.3932 7.71212H101.124L106.553 21.4041L107.499 24.4147L108.445 21.4041L113.711 7.71212H118.194L108.24 32.2505C106.019 37.7354 104.332 39.3026 100.424 39.3026ZM140.17 22.5176C138.977 27.6314 135.193 30.2296 130.051 30.2296C123.593 30.2296 119.644 25.8993 119.644 18.7234C119.644 11.2589 123.593 7.13475 129.845 7.13475C136.179 7.13475 140.005 11.4238 140.005 18.476V19.5482H124.128C124.374 24.0435 126.473 26.5592 130.051 26.5592C132.848 26.5592 134.822 25.2395 135.562 22.5176H140.17ZM129.845 10.8051C126.678 10.8051 124.785 12.826 124.251 16.5376H135.439C134.904 12.826 132.972 10.8051 129.845 10.8051ZM144.414 29.6935V9.15527e-05H148.815V29.6935H144.414Z" fill="black"/>
</g>
<defs>
<clipPath id="clip0_104_6372">
<rect width="149" height="40" fill="white"/>
</clipPath>
</defs>
</svg>
