<svg width="117" height="33" viewBox="0 0 117 33" fill="none" xmlns="http://www.w3.org/2000/svg">
<path d="M107.37 11.6957C107.085 11.6957 106.809 11.7544 106.565 11.8927L98.8262 16.3616C98.3254 16.65 98.021 17.1951 98.021 17.7746V26.6964C98.021 27.2757 98.3254 27.8199 98.8262 28.1092L100.847 29.2738C101.829 29.7579 102.191 29.7501 102.638 29.7501C104.092 29.7501 104.922 28.868 104.922 27.3348V18.533C104.922 18.4086 104.814 18.3195 104.692 18.3195H103.722C103.598 18.3195 103.492 18.4108 103.492 18.533V27.3394C103.492 28.019 102.784 28.7027 101.636 28.1281L99.535 26.896C99.4608 26.8555 99.4034 26.7818 99.4034 26.6989V17.7772C99.4034 17.6927 99.4601 17.6064 99.535 17.5636L107.257 13.1108C107.33 13.0692 107.416 13.0692 107.487 13.1108L115.209 17.5636C115.283 17.6077 115.341 17.6899 115.341 17.7772V26.6989C115.341 26.7841 115.298 26.8713 115.226 26.9124L107.487 31.3653C107.419 31.4048 107.328 31.4048 107.257 31.3653L105.269 30.1824C105.21 30.1477 105.129 30.1504 105.072 30.1824C104.524 30.4934 104.42 30.5295 103.906 30.7081C103.779 30.7521 103.586 30.8209 103.972 31.0369L106.568 32.5669C106.815 32.7098 107.09 32.7804 107.373 32.7804C107.659 32.7804 107.931 32.7119 108.178 32.5669L115.916 28.114C116.417 27.8226 116.721 27.2805 116.721 26.7012V17.7794C116.721 17.1999 116.417 16.656 115.916 16.3664L108.178 11.8975C107.935 11.7592 107.657 11.7005 107.373 11.7005L107.37 11.6957ZM109.44 18.0708C107.236 18.0708 105.924 19.0087 105.924 20.5681C105.924 22.2579 107.227 22.7246 109.342 22.9338C111.872 23.1816 112.069 23.5531 112.069 24.0511C112.069 24.915 111.38 25.2833 109.752 25.2833C107.707 25.2833 107.258 24.7727 107.107 23.7534C107.089 23.6442 107.005 23.5563 106.894 23.5563H105.889C105.828 23.5576 105.771 23.5823 105.728 23.6251C105.685 23.668 105.66 23.7257 105.659 23.7863C105.659 25.0885 106.367 26.6286 109.75 26.6286C112.199 26.6286 113.611 25.6695 113.611 23.9833C113.611 22.3163 112.47 21.8658 110.095 21.5514C107.697 21.2317 107.466 21.0787 107.466 20.5162C107.466 20.0522 107.66 19.4316 109.438 19.4316C111.026 19.4316 111.613 19.7741 111.853 20.8446C111.874 20.9451 111.963 21.0273 112.067 21.0273H113.071C113.133 21.0273 113.193 20.9894 113.236 20.9451C113.278 20.8978 113.308 20.8446 113.302 20.7807C113.146 18.937 111.917 18.0697 109.441 18.0697L109.44 18.0708Z" fill="#838383"/>
<path d="M61.8751 0.000298654C61.7886 0.000454719 61.7037 0.0231203 61.6287 0.0660641C61.554 0.109741 61.492 0.172111 61.4488 0.247029C61.4056 0.321947 61.3827 0.406829 61.3823 0.493311V13.0623C61.3823 13.1856 61.3247 13.2961 61.2179 13.358C61.1655 13.3885 61.106 13.4046 61.0453 13.4046C60.9847 13.4046 60.9252 13.3885 60.8728 13.358L58.819 12.1751C58.6692 12.0885 58.4992 12.0428 58.3261 12.0428C58.153 12.0428 57.983 12.0885 57.8332 12.1751L49.6349 16.9068C49.3285 17.0836 49.1417 17.4238 49.1417 17.7775V27.2411C49.1414 27.4143 49.1869 27.5845 49.2734 27.7345C49.36 27.8845 49.4846 28.009 49.6347 28.0954L57.8332 32.8273C57.9829 32.9142 58.153 32.96 58.3261 32.96C58.4992 32.96 58.6693 32.9142 58.819 32.8273L67.0175 28.0954C67.1676 28.009 67.2922 27.8845 67.3788 27.7345C67.4654 27.5845 67.5108 27.4143 67.5106 27.2411V3.64777C67.5106 3.2888 67.3146 2.95198 67.0013 2.77706L62.1217 0.0493944C62.0449 0.00669252 61.96 -0.000614756 61.8751 0.000298654ZM9.13478 11.8134C8.97836 11.8198 8.83153 11.847 8.6911 11.9285L0.492789 16.6602C0.342604 16.7465 0.217913 16.871 0.131368 17.021C0.0448224 17.171 -0.000498279 17.3413 4.13214e-06 17.5145L0.0166739 30.2152C0.0166739 30.3919 0.108015 30.5559 0.263294 30.6422C0.415605 30.7336 0.604453 30.7336 0.756079 30.6422L5.6193 27.849C5.92758 27.6663 6.12853 27.3476 6.12853 26.995V21.0635C6.12853 20.7096 6.31463 20.3853 6.62177 20.2095L8.69201 19.0102C8.84161 18.9232 9.01174 18.8778 9.18479 18.8786C9.35794 18.8776 9.52819 18.923 9.67781 19.0102L11.7471 20.2088C12.0538 20.3846 12.2399 20.7093 12.2399 21.0628V26.9941C12.2399 27.3471 12.4454 27.6677 12.7491 27.8481L17.6124 30.6413C17.7654 30.7326 17.9538 30.7326 18.1052 30.6413C18.2559 30.5545 18.3518 30.3908 18.3518 30.2143L18.3682 17.514C18.3692 17.3407 18.3241 17.1703 18.2375 17.0202C18.1509 16.8701 18.0259 16.7457 17.8754 16.6597L9.67712 11.9283C9.53851 11.847 9.391 11.8196 9.23343 11.8132H9.13524L9.13478 11.8134ZM82.8067 11.9285C82.6337 11.928 82.4636 11.9734 82.3137 12.06L74.1152 16.792C73.8092 16.9689 73.622 17.2925 73.622 17.646V27.1096C73.622 27.4654 73.8225 27.7878 74.1312 27.9636L82.264 32.5992C82.5642 32.7705 82.9307 32.7835 83.2333 32.6152L88.1623 29.8713C88.3187 29.7845 88.4244 29.6224 88.4249 29.4443C88.4254 29.2662 88.3329 29.1059 88.1783 29.0173L79.9302 24.2853C79.7758 24.1972 79.6676 24.0189 79.6676 23.8417V20.8824C79.6676 20.7057 79.7772 20.5436 79.9302 20.4554L82.4932 18.9766C82.6458 18.8885 82.833 18.8885 82.9865 18.9766L85.5506 20.4554C85.6257 20.4985 85.688 20.5608 85.7313 20.6358C85.7746 20.7108 85.7973 20.7959 85.797 20.8824V23.2155C85.7968 23.3021 85.8195 23.3872 85.8627 23.4622C85.906 23.5372 85.9683 23.5994 86.0434 23.6425C86.1971 23.7311 86.3832 23.7316 86.5367 23.6425L91.449 20.7842C91.7538 20.607 91.9422 20.2826 91.9422 19.9302V17.6467C91.9422 17.4736 91.8967 17.3035 91.8101 17.1535C91.7236 17.0036 91.5991 16.879 91.4492 16.7924L83.3 12.0605C83.1502 11.9738 82.9801 11.9284 82.807 11.929L82.8067 11.9285ZM58.2931 18.9937C58.339 18.9935 58.3842 19.0048 58.4246 19.0264L61.2341 20.6529C61.3103 20.697 61.3656 20.7785 61.3656 20.8665V24.1196C61.3656 24.2079 61.3108 24.2892 61.2341 24.3331L58.4246 25.9596C58.3482 26.003 58.2548 26.003 58.178 25.9596L55.3686 24.3331C55.2921 24.289 55.2371 24.2075 55.2371 24.1196V20.866C55.2371 20.7779 55.2923 20.697 55.3686 20.6525L58.178 19.0262C58.2164 19.004 58.2502 18.9937 58.2931 18.9937Z" fill="#838383"/>
<path d="M33.7635 11.8789C33.5904 11.8786 33.4203 11.924 33.2703 12.0104L25.0718 16.7259C24.7653 16.9027 24.579 17.2431 24.579 17.5966V27.0602C24.5785 27.2334 24.6239 27.4036 24.7104 27.5536C24.7969 27.7036 24.9216 27.828 25.0718 27.9143L33.2703 32.6462C33.42 32.7331 33.5901 32.7789 33.7632 32.7789C33.9363 32.7789 34.1064 32.7331 34.2561 32.6462L42.4546 27.9143C42.6047 27.8278 42.7293 27.7033 42.8159 27.5533C42.9024 27.4034 42.9479 27.2332 42.9477 27.06V17.5964C42.9477 17.2424 42.7613 16.9022 42.4544 16.7257L34.2559 12.0102C34.1061 11.9233 33.9358 11.8779 33.7626 11.8787L33.7635 11.8789ZM82.7908 20.3241C82.7582 20.3241 82.7218 20.3241 82.6922 20.34L81.1149 21.2603C81.0855 21.2766 81.061 21.3004 81.0436 21.3292C81.0263 21.358 81.0169 21.3909 81.0163 21.4245V23.2319C81.0163 23.2999 81.0558 23.3621 81.1149 23.3963L82.6922 24.2999C82.7192 24.3167 82.7505 24.3256 82.7824 24.3256C82.8142 24.3256 82.8455 24.3167 82.8726 24.2999L84.4498 23.3963C84.5082 23.3627 84.5484 23.2999 84.5484 23.2319V21.4245C84.5484 21.3564 84.5085 21.2943 84.4498 21.2601L82.8726 20.3398C82.8433 20.3225 82.8232 20.3238 82.7903 20.3238L82.7908 20.3241Z" fill="#838383"/>
</svg>
