<svg width="103" height="35" viewBox="0 0 103 35" fill="none" xmlns="http://www.w3.org/2000/svg">
<path d="M19.4614 20.7562C21.3809 20.7562 22.937 19.2001 22.937 17.2806C22.937 15.3611 21.3809 13.8051 19.4614 13.8051C17.5419 13.8051 15.9858 15.3611 15.9858 17.2806C15.9858 19.2001 17.5419 20.7562 19.4614 20.7562Z" fill="#838383"/>
<path fill-rule="evenodd" clip-rule="evenodd" d="M19.4615 10.214C24.1279 10.214 28.4629 10.8836 31.7315 12.0088C35.6696 13.3646 38.091 15.4197 38.091 17.2805C38.091 19.2197 35.5248 21.4029 31.2958 22.8041C28.0985 23.8634 23.8911 24.4164 19.4615 24.4164C14.9199 24.4164 10.6193 23.8973 7.386 22.7925C3.29529 21.3943 0.831421 19.1828 0.831421 17.2805C0.831421 15.4348 3.14329 13.3956 7.02609 12.0419C10.3068 10.8981 14.7489 10.214 19.4609 10.214H19.4615Z" stroke="#838383" stroke-width="1.66272"/>
<path fill-rule="evenodd" clip-rule="evenodd" d="M13.3098 13.7677C15.6411 9.7253 18.3866 6.30454 20.9943 4.0352C24.1362 1.301 27.1261 0.230204 28.738 1.15973C30.4179 2.12848 31.0272 5.44221 30.1283 9.8056C29.4493 13.1046 27.8258 17.0254 25.6129 20.8627C23.344 24.797 20.746 28.2632 18.1738 30.5115C14.919 33.3566 11.7723 34.3863 10.1245 33.436C8.52553 32.5145 7.91406 29.4925 8.68113 25.4526C9.32925 22.0392 10.9557 17.8495 13.309 13.7676L13.3098 13.7677Z" stroke="#838383" stroke-width="1.66272"/>
<path fill-rule="evenodd" clip-rule="evenodd" d="M13.3157 20.873C10.9778 16.8352 9.38609 12.7474 8.72169 9.35486C7.92193 5.26734 8.48739 2.14212 10.0979 1.20989C11.7761 0.238307 14.9513 1.36535 18.2826 4.32333C20.8014 6.55969 23.3877 9.92372 25.6071 13.7574C27.8825 17.6879 29.5879 21.6699 30.2514 25.0211C31.0908 29.2619 30.4114 32.5022 28.7651 33.4552C27.1677 34.38 24.2446 33.4009 21.1277 30.7187C18.4941 28.4525 15.6766 24.9509 13.3157 20.8729V20.873Z" stroke="#838383" stroke-width="1.66272"/>
<path fill-rule="evenodd" clip-rule="evenodd" d="M58.0412 26.1605L53.7812 19.7245C55.9342 19.5345 57.8742 17.9745 57.8742 15.1245C57.8742 12.2245 55.8162 10.3685 52.9292 10.3685H46.5892V26.1485H48.5532V19.8785H51.7002L55.7222 26.1485L58.0412 26.1605ZM52.6942 18.1635H48.5542V12.1305H52.6942C54.5642 12.1305 55.8412 13.3605 55.8412 15.1355C55.8412 16.9105 54.5632 18.1655 52.6942 18.1655V18.1635ZM65.3522 26.4435C67.2222 26.4435 68.7592 25.8285 69.8952 24.6935L69.0432 23.5335C68.1432 24.4565 66.8192 24.9765 65.5182 24.9765C63.0582 24.9765 61.5432 23.1785 61.4012 21.0265H70.6512V20.5765C70.6512 17.1465 68.6162 14.4485 65.1612 14.4485C61.8962 14.4485 59.5312 17.1225 59.5312 20.4345C59.5312 24.0075 61.9682 26.4345 65.3512 26.4345L65.3522 26.4435ZM68.9022 19.7235H61.4022C61.4972 17.9735 62.7022 15.9135 65.1402 15.9135C67.7432 15.9135 68.8782 18.0195 68.9022 19.7235ZM82.4362 26.1595V18.3045C82.4362 15.5365 80.4262 14.4475 78.0122 14.4475C76.1422 14.4475 74.6762 15.0625 73.4462 16.3405L74.2742 17.5705C75.2912 16.4825 76.4042 15.9855 77.7762 15.9855C79.4322 15.9855 80.6632 16.8605 80.6632 18.3985V20.4565C79.7402 19.3915 78.4392 18.8945 76.8772 18.8945C74.9372 18.8945 72.8772 20.1015 72.8772 22.6565C72.8772 25.1405 74.9352 26.4425 76.8772 26.4425C78.4152 26.4425 79.7172 25.8985 80.6632 24.8575V26.1575L82.4362 26.1595ZM77.5162 25.1655C75.8602 25.1655 74.7002 24.1255 74.7002 22.6815C74.7002 21.2145 75.8602 20.1735 77.5162 20.1735C78.7702 20.1735 79.9762 20.6465 80.6632 21.5935V23.7465C79.9772 24.6925 78.7702 25.1655 77.5162 25.1655ZM91.0162 26.4435C93.0982 26.4435 94.3282 25.5915 95.2042 24.4565L94.0212 23.3685C93.2642 24.3855 92.2942 24.8585 91.1212 24.8585C88.6842 24.8585 87.1712 22.9655 87.1712 20.4345C87.1712 17.9035 88.6852 16.0345 91.1212 16.0345C92.3042 16.0345 93.2742 16.4845 94.0212 17.5245L95.2042 16.4365C94.3292 15.3005 93.0982 14.4495 91.0162 14.4495C87.6092 14.4495 85.3142 17.0525 85.3142 20.4355C85.3142 23.8425 87.6092 26.4355 91.0162 26.4355V26.4435ZM100.576 26.4435C101.616 26.4435 102.256 26.1355 102.706 25.7105L102.186 24.3855C101.949 24.6455 101.486 24.8585 100.979 24.8585C100.199 24.8585 99.8192 24.2435 99.8192 23.3915V16.2935H102.139V14.7325H99.8192V11.6095H98.0442V14.7325H96.1512V16.2945H98.0442V23.7715C98.0442 25.4755 98.8962 26.4455 100.576 26.4455V26.4435Z" fill="#838383"/>
</svg>
