<svg width="193" height="24" viewBox="0 0 193 24" fill="none" xmlns="http://www.w3.org/2000/svg">
<path d="M19.9402 0C14.6228 0 11.2994 2.65869 9.97008 7.97606C11.9641 5.31737 14.2904 4.32037 16.9491 4.98504C18.4661 5.36427 19.5503 6.46474 20.7504 7.68294C22.7054 9.66735 24.9681 11.9641 29.9102 11.9641C35.2276 11.9641 38.551 9.3054 39.8803 3.98803C37.8863 6.64672 35.5599 7.64372 32.9013 6.97905C31.3843 6.59982 30.3001 5.49935 29.1 4.28115C27.145 2.29674 24.8823 0 19.9402 0ZM9.97008 11.9641C4.6527 11.9641 1.32934 14.6228 0 19.9402C1.99402 17.2815 4.32037 16.2845 6.97905 16.9491C8.49598 17.3284 9.58021 18.4288 10.7803 19.647C12.7353 21.6314 14.998 23.9282 19.9402 23.9282C25.2575 23.9282 28.5809 21.2695 29.9102 15.9521C27.9162 18.6108 25.5899 19.6078 22.9312 18.9431C21.4142 18.5639 20.33 17.4634 19.1299 16.2452C17.1749 14.2608 14.9122 11.9641 9.97008 11.9641Z" fill="#838383"/>
<path d="M59.8175 10.0823H56.3375V16.8177C56.3375 18.6138 57.5162 18.5857 59.8175 18.4734V21.1956C55.1589 21.7569 53.3066 20.466 53.3066 16.8177V10.0823H50.7248V7.16369H53.3066V3.39426L56.3375 2.49621V7.16369H59.8175V10.0823ZM73.0828 7.16369H76.1137V21.1956H73.0828V19.175C72.0164 20.6624 70.3606 21.5605 68.1717 21.5605C64.355 21.5605 61.1837 18.3331 61.1837 14.1797C61.1837 9.99814 64.355 6.79885 68.1717 6.79885C70.3606 6.79885 72.0164 7.6969 73.0828 9.15622V7.16369ZM68.6487 18.6699C71.1745 18.6699 73.0828 16.7896 73.0828 14.1797C73.0828 11.5697 71.1745 9.68944 68.6487 9.68944C66.123 9.68944 64.2146 11.5697 64.2146 14.1797C64.2146 16.7896 66.123 18.6699 68.6487 18.6699ZM81.1652 5.05889C80.0988 5.05889 79.2288 4.16085 79.2288 3.12248C79.2288 2.05605 80.0988 1.18607 81.1652 1.18607C82.2317 1.18607 83.1017 2.05605 83.1017 3.12248C83.1017 4.16085 82.2317 5.05889 81.1652 5.05889ZM79.6498 21.1956V7.16369H82.6807V21.1956H79.6498ZM86.1887 21.1956V0.708984H89.2196V21.1956H86.1887ZM108.892 7.16369H112.092L107.686 21.1956H104.711L101.792 11.7381L98.8455 21.1956H95.8707L91.4647 7.16369H94.664L97.3862 16.8457L100.333 7.16369H103.223L106.142 16.8457L108.892 7.16369ZM115.852 5.05889C114.786 5.05889 113.916 4.16085 113.916 3.12248C113.916 2.05605 114.786 1.18607 115.852 1.18607C116.919 1.18607 117.789 2.05605 117.789 3.12248C117.789 4.16085 116.919 5.05889 115.852 5.05889ZM114.337 21.1956V7.16369H117.368V21.1956H114.337ZM128.257 6.79885C131.4 6.79885 133.645 8.93171 133.645 12.58V21.1956H130.614V12.8887C130.614 10.7559 129.379 9.63331 127.471 9.63331C125.478 9.63331 123.907 10.812 123.907 13.6745V21.1956H120.876V7.16369H123.907V8.95978C124.833 7.50045 126.348 6.79885 128.257 6.79885ZM148.013 1.5509H151.044V21.1956H148.013V19.175C146.947 20.6624 145.291 21.5605 143.102 21.5605C139.286 21.5605 136.114 18.3331 136.114 14.1797C136.114 9.99814 139.286 6.79885 143.102 6.79885C145.291 6.79885 146.947 7.6969 148.013 9.15622V1.5509ZM143.579 18.6699C146.105 18.6699 148.013 16.7896 148.013 14.1797C148.013 11.5697 146.105 9.68944 143.579 9.68944C141.054 9.68944 139.145 11.5697 139.145 14.1797C139.145 16.7896 141.054 18.6699 143.579 18.6699ZM161.204 21.5605C156.966 21.5605 153.795 18.3331 153.795 14.1797C153.795 9.99814 156.966 6.79885 161.204 6.79885C163.954 6.79885 166.339 8.23011 167.462 10.4191L164.852 11.9346C164.234 10.6155 162.859 9.77363 161.175 9.77363C158.706 9.77363 156.826 11.6539 156.826 14.1797C156.826 16.7054 158.706 18.5857 161.175 18.5857C162.859 18.5857 164.234 17.7157 164.908 16.4248L167.518 17.9122C166.339 20.1292 163.954 21.5605 161.204 21.5605ZM172.513 11.0365C172.513 13.5903 180.062 12.0468 180.062 17.2386C180.062 20.045 177.621 21.5605 174.59 21.5605C171.784 21.5605 169.763 20.2976 168.865 18.277L171.475 16.7615C171.924 18.0244 173.047 18.7821 174.59 18.7821C175.937 18.7821 176.975 18.3331 176.975 17.2106C176.975 14.7129 169.426 16.1161 169.426 11.0926C169.426 8.45463 171.699 6.79885 174.562 6.79885C176.863 6.79885 178.772 7.86528 179.754 9.7175L177.2 11.1488C176.695 10.0543 175.713 9.54912 174.562 9.54912C173.467 9.54912 172.513 10.0262 172.513 11.0365ZM185.451 11.0365C185.451 13.5903 193 12.0468 193 17.2386C193 20.045 190.558 21.5605 187.527 21.5605C184.721 21.5605 182.701 20.2976 181.802 18.277L184.412 16.7615C184.861 18.0244 185.984 18.7821 187.527 18.7821C188.875 18.7821 189.913 18.3331 189.913 17.2106C189.913 14.7129 182.364 16.1161 182.364 11.0926C182.364 8.45463 184.637 6.79885 187.499 6.79885C189.801 6.79885 191.709 7.86528 192.691 9.7175L190.137 11.1488C189.632 10.0543 188.65 9.54912 187.499 9.54912C186.405 9.54912 185.451 10.0262 185.451 11.0365Z" fill="#838383"/>
</svg>
